<svg version="1.1" id="Layer_1" xmlns="http://www.w3.org/2000/svg" xmlns:xlink="http://www.w3.org/1999/xlink" x="0px" y="0px" width="100%" viewBox="0 0 500 500" enable-background="new 0 0 500 500" xml:space="preserve">

<path fill="#079362" opacity="1.000000" stroke="none" d="
M45.236275,354.934601 
	C45.163883,352.939240 45.091492,350.943848 45.115723,348.135620 
	C45.211754,342.870514 45.211475,338.418335 45.210529,333.966125 
	C45.198376,276.759552 45.185474,219.552994 45.175671,162.346436 
	C45.175133,159.217850 45.200157,156.089264 45.213284,152.960678 
	C45.188766,151.320343 45.164249,149.680023 45.400726,147.383362 
	C46.081264,144.122711 46.500809,141.518387 46.920357,138.914062 
	C46.969418,138.486862 47.018486,138.059662 47.183029,137.011932 
	C47.531483,135.534424 47.764458,134.677429 47.997437,133.820450 
	C48.036076,133.458542 48.074715,133.096634 48.396992,132.188782 
	C49.129047,129.718719 49.577465,127.794594 50.025879,125.870461 
	C50.055874,125.481743 50.085861,125.093033 50.381596,124.163963 
	C51.104946,122.370224 51.562553,121.116844 52.020164,119.863457 
	C52.020164,119.863457 52.127666,119.484207 52.421310,119.059021 
	C53.157661,117.407982 53.600365,116.182121 54.043068,114.956261 
	C54.043072,114.956261 54.132317,114.483475 54.402664,113.994423 
	C55.115055,112.275986 55.557102,111.046593 55.999146,109.817207 
	C55.999146,109.817207 56.063271,109.506126 56.246590,109.131256 
	C56.607540,108.449921 56.785175,108.143463 56.962811,107.836998 
	C56.962811,107.836998 57.077354,107.496239 57.260056,107.107780 
	C57.613750,106.423447 57.784740,106.127571 57.955727,105.831696 
	C57.955730,105.831696 58.075287,105.442787 58.291988,105.082207 
	C58.704689,104.494202 58.872799,104.247757 59.013023,103.982300 
	C59.013023,103.982300 59.097797,103.569054 59.270775,103.161728 
	C59.633377,102.489914 59.806904,102.215271 59.964325,101.930458 
	C59.964325,101.930458 59.953381,101.988029 60.240768,101.816025 
	C61.360409,100.061630 62.192669,98.479248 63.024925,96.896873 
	C63.133419,96.596962 63.317455,96.354355 63.943077,95.815323 
	C64.539825,94.927307 64.770531,94.393013 65.001236,93.858719 
	C71.148270,84.663895 78.112877,76.511780 87.146156,69.654503 
	C97.154335,62.057182 107.954994,56.544685 119.530807,52.407875 
	C129.179352,48.959808 138.959946,45.515358 149.534790,45.958187 
	C151.445938,46.038219 153.389587,45.341434 156.190796,44.970428 
	C212.093811,44.970013 267.124268,44.998615 322.154755,45.038883 
	C330.796448,45.045204 339.438080,45.104481 348.079742,45.139275 
	C362.181000,45.761608 375.912842,48.971428 388.740967,54.296265 
	C398.968903,58.541801 408.824677,64.581871 417.438904,71.561554 
	C425.857849,78.382957 433.735565,86.595482 439.627960,95.644768 
	C448.778625,109.697868 454.641388,125.460564 456.911285,142.348801 
	C460.692719,170.482727 458.469055,198.745117 458.770630,226.944000 
	C459.187439,265.913910 459.455261,304.901093 458.746216,343.861908 
	C458.265930,370.251404 450.498688,394.649170 433.712280,415.669525 
	C417.314789,436.202850 395.483765,447.647736 370.492645,453.915955 
	C370.020294,454.034424 369.497131,453.950134 368.230469,453.848328 
	C365.327728,453.794952 363.183807,453.753357 361.058075,453.930328 
	C353.274780,454.578186 345.499237,455.876801 337.717743,455.899994 
	C278.779388,456.075531 219.838440,456.281616 160.902496,455.873474 
	C138.450958,455.717987 117.104134,450.186462 97.813950,438.039398 
	C94.314560,435.835785 90.567284,434.025848 86.934448,432.034180 
	C86.934456,432.034149 86.987953,432.012268 86.866241,431.714874 
	C81.474930,426.624664 76.205345,421.831848 70.935768,417.039062 
	C70.935776,417.039032 70.977661,416.992828 70.915283,416.684143 
	C69.879433,415.260406 68.905968,414.145355 67.932495,413.030304 
	C67.932495,413.030304 67.987679,413.012177 67.912125,412.693024 
	C66.534279,410.932220 65.231995,409.490540 63.929714,408.048889 
	C63.929714,408.048889 63.988441,407.996979 63.924149,407.665710 
	C62.598808,405.441956 61.337765,403.549469 60.076717,401.657013 
	C60.076714,401.657013 60.000172,401.447388 59.942081,400.948364 
	C58.235874,397.302917 56.587757,394.156433 54.939644,391.009979 
	C54.939644,391.009979 54.995052,390.993042 54.959259,390.624390 
	C53.031013,385.147583 51.138561,380.039398 49.246113,374.931213 
	C49.246117,374.931213 49.109173,374.504944 49.062225,373.897766 
	C48.399433,371.461578 47.783588,369.632629 47.167744,367.803650 
	C47.143372,367.390533 47.118996,366.977448 47.068161,366.024078 
	C47.041695,365.483826 47.021343,365.021973 47.021343,365.021973 
	C47.021343,365.021973 47.038818,364.560577 47.113995,364.051331 
	C46.538204,360.672943 45.887238,357.803772 45.236275,354.934601 
M155.993820,393.990784 
	C155.993820,393.990784 155.944717,393.961731 156.605148,393.761078 
	C157.736908,392.450378 158.868683,391.139648 160.113831,389.470825 
	C160.113831,389.470825 160.187241,389.102509 160.491028,388.721985 
	C160.688828,388.463226 160.854874,388.185486 161.080215,387.128479 
	C161.069717,386.108124 161.059219,385.087769 161.290161,383.358826 
	C160.580292,379.588501 159.870422,375.818207 159.066483,371.108734 
	C159.271713,355.479736 159.146118,340.005890 163.698242,324.593292 
	C168.257828,309.155457 175.120941,295.165375 185.578979,283.372864 
	C196.770691,270.753052 211.614853,262.357361 225.478729,252.910507 
	C236.539444,245.373718 247.778244,238.006683 258.170502,229.613922 
	C264.667145,224.367264 270.034851,217.596817 275.344788,211.052231 
	C278.709503,206.905212 281.036621,201.916351 283.842621,197.282700 
	C293.176025,200.135498 301.460785,204.287949 312.130798,201.324371 
	C326.069946,197.452744 337.138184,191.159729 344.193115,178.496384 
	C349.757263,168.508942 351.424622,157.961258 349.272797,146.555771 
	C347.419495,136.732605 342.349579,128.784637 335.395447,122.408745 
	C327.430756,115.106346 317.771057,110.253815 306.529510,109.991600 
	C292.445038,109.663086 280.631378,115.017380 270.925629,125.034126 
	C263.828857,132.358231 259.924774,141.498901 259.052734,151.414856 
	C257.988831,163.511948 260.912506,174.912308 268.273895,184.970718 
	C269.103912,186.104843 268.818695,188.464798 268.366241,190.062515 
	C265.003326,201.938507 257.366699,211.049652 247.759933,218.063004 
	C229.326584,231.520187 210.222519,244.054474 191.611343,257.273834 
	C180.915863,264.870728 171.832962,274.303345 164.892685,285.433838 
	C159.781235,293.631348 155.684052,302.461273 150.639099,311.512421 
	C149.457840,315.354675 148.276566,319.196960 146.958130,323.672089 
	C146.900116,324.099701 146.842102,324.527283 146.341370,325.500916 
	C143.235092,333.754150 141.054321,342.136047 142.831192,351.882202 
	C142.787109,353.249481 142.743011,354.616730 142.277084,356.586090 
	C142.459259,362.744659 142.641449,368.903229 142.927780,375.478149 
	C142.927780,375.478149 142.977051,375.904510 142.956390,376.796600 
	C143.684921,381.719879 142.507095,387.192108 147.452026,391.215668 
	C147.701385,391.393585 147.888596,391.622375 148.345566,392.303619 
	C148.610718,392.527252 148.875854,392.750885 149.526779,393.200958 
	C149.765808,393.395935 149.929062,393.641296 150.640121,394.248291 
	C152.422318,394.143585 154.204529,394.038879 155.993820,393.990784 
M187.523544,365.739349 
	C189.040939,368.387878 190.037476,371.753845 192.290298,373.389252 
	C193.457474,374.236542 197.176239,372.469788 199.139008,371.050079 
	C200.872498,369.796204 201.857346,367.436707 203.005295,365.467712 
	C203.830292,364.052612 204.112198,362.269714 205.092239,361.003876 
	C218.662613,343.476135 236.955994,331.607300 255.993042,321.434753 
	C272.271667,312.736237 287.562988,302.810638 302.453735,292.098480 
	C303.982635,290.998627 305.085724,289.163635 306.075775,287.486450 
	C308.436493,283.487427 306.889404,279.912292 303.807465,277.358917 
	C300.881561,274.934845 297.518616,275.019989 294.492065,277.974091 
	C292.260529,280.152222 289.932983,282.356750 287.295197,283.973511 
	C271.388916,293.722595 255.663269,303.819000 239.329803,312.804169 
	C221.907791,322.388123 206.896530,334.631104 194.643524,350.108490 
	C191.346008,354.273743 190.006149,359.988831 187.523544,365.739349 
M231.015747,274.453369 
	C228.855148,275.910248 226.731995,277.426605 224.527725,278.814056 
	C213.025314,286.054199 203.140091,295.098419 194.844482,305.822723 
	C191.985458,309.518829 192.579041,315.362671 195.483078,317.636536 
	C198.148666,319.723724 204.934082,318.605042 206.910492,315.172455 
	C212.017059,306.303558 220.662811,301.303345 228.382889,295.474640 
	C235.250259,290.289703 243.201279,286.557526 250.565262,282.008118 
	C258.444244,277.140533 266.442047,272.408051 273.942017,266.998352 
	C283.632904,260.008392 294.122711,253.957077 300.582977,243.074249 
	C303.378143,238.365570 300.763947,236.302826 298.262878,233.931107 
	C295.552399,231.360825 291.066772,232.037720 288.661499,234.864532 
	C280.359344,244.621613 269.933838,251.740463 259.112946,258.285889 
	C250.081848,263.748718 240.826508,268.840790 231.015747,274.453369 
M223.018494,391.601410 
	C227.089462,381.533386 234.379395,374.040955 243.377258,368.600464 
	C255.712692,361.141998 267.975067,353.702362 278.487854,343.726929 
	C282.013397,340.381592 281.967316,337.248322 278.402435,332.908081 
	C276.117065,330.125641 272.087921,330.081482 268.704102,332.762329 
	C266.019562,334.889221 263.432892,337.174835 260.574829,339.040833 
	C251.792603,344.774567 242.941071,350.404968 234.041809,355.955811 
	C222.054764,363.432617 213.578827,373.526855 209.595932,387.290497 
	C208.362244,391.553772 209.854187,394.483673 213.144699,396.493652 
	C216.195923,398.357513 220.721527,396.185089 223.018494,391.601410 
z" data-index="1" style="opacity: 1; visibility: visible;"></path>
<path fill="#177F5A" opacity="1.000000" stroke="none" d="
M86.963928,432.390656 
	C90.567284,434.025848 94.314560,435.835785 97.813950,438.039398 
	C117.104134,450.186462 138.450958,455.717987 160.902496,455.873474 
	C219.838440,456.281616 278.779388,456.075531 337.717743,455.899994 
	C345.499237,455.876801 353.274780,454.578186 361.058075,453.930328 
	C363.183807,453.753357 365.327728,453.794952 367.826477,453.858337 
	C363.996155,454.948608 359.840729,456.165405 355.598419,456.814911 
	C351.385559,457.459869 347.085327,457.534058 342.012543,457.606262 
	C337.226990,457.232178 333.251801,456.992554 329.277679,457.008820 
	C311.514954,457.081573 293.752594,457.227325 275.538147,457.216431 
	C238.991959,457.059753 202.897720,457.023468 166.803482,457.043762 
	C165.383423,457.044556 163.963638,457.585754 162.543732,457.875153 
	C145.461899,457.597687 129.005676,454.222565 113.079391,448.063812 
	C103.534744,444.372833 94.797752,439.370300 86.963928,432.390656 
z" data-index="2" style="opacity: 1;"></path>

<path fill="#A1D2C0" opacity="1.000000" stroke="none" d="
M347.908020,44.721397 
	C339.438080,45.104481 330.796448,45.045204 322.154755,45.038883 
	C267.124268,44.998615 212.093811,44.970013 156.605194,44.972153 
	C157.294464,44.675205 158.441650,44.054440 159.589310,44.053566 
	C221.652664,44.006351 283.716064,44.010365 345.779449,44.022945 
	C346.431763,44.023079 347.084015,44.205952 347.908020,44.721397 
z" data-index="4" style="visibility: hidden;"></path>
<path fill="#A1D2C1" opacity="1.000000" stroke="none" d="
M163.050797,457.924774 
	C163.963638,457.585754 165.383423,457.044556 166.803482,457.043762 
	C202.897720,457.023468 238.991959,457.059753 275.531006,457.314392 
	C275.975769,457.542603 275.983612,457.738953 275.983612,457.738953 
	C267.330139,457.826843 258.676758,457.983063 250.023209,457.990143 
	C221.201447,458.013702 192.379654,457.983795 163.050797,457.924774 
z" data-index="5" style="opacity: 1;"></path>
<path fill="#9CD0BD" opacity="1.000000" stroke="none" d="
M276.447815,457.818970 
	C275.983612,457.738953 275.975769,457.542603 275.982910,457.444641 
	C293.752594,457.227325 311.514954,457.081573 329.277679,457.008820 
	C333.251801,456.992554 337.226990,457.232178 341.585510,457.520325 
	C320.283539,457.757446 298.597809,457.828247 276.447815,457.818970 
z" data-index="6"></path>
<path fill="#177F5A" opacity="1.000000" stroke="none" d="
M70.927589,417.394592 
	C76.205345,421.831848 81.474930,426.624664 86.855560,431.741730 
	C81.617531,427.294006 76.268478,422.522064 70.927589,417.394592 
z" data-index="7"></path>
<path fill="#177F5A" opacity="1.000000" stroke="none" d="
M49.180984,375.290222 
	C51.138561,380.039398 53.031013,385.147583 54.953339,390.652771 
	C53.027431,385.916229 51.071648,380.782745 49.180984,375.290222 
z" data-index="8"></path>
<path fill="#177F5A" opacity="1.000000" stroke="none" d="
M54.979576,391.385986 
	C56.587757,394.156433 58.235874,397.302917 59.935577,400.836975 
	C58.331280,398.070374 56.675396,394.916168 54.979576,391.385986 
z" data-index="9"></path>

<path fill="#177F5A" opacity="1.000000" stroke="none" d="
M45.156372,355.346039 
	C45.887238,357.803772 46.538204,360.672943 47.105816,363.820618 
	C46.373798,361.318573 45.725136,358.538025 45.156372,355.346039 
z" data-index="11"></path>
<path fill="#177F5A" opacity="1.000000" stroke="none" d="
M63.958801,408.401306 
	C65.231995,409.490540 66.534279,410.932220 67.898361,412.718597 
	C66.636063,411.626801 65.311974,410.190277 63.958801,408.401306 
z" data-index="12"></path>
<path fill="#177F5A" opacity="1.000000" stroke="none" d="
M59.991421,402.036560 
	C61.337765,403.549469 62.598808,405.441956 63.898987,407.693359 
	C62.594120,406.173553 61.250118,404.294830 59.991421,402.036560 
z" data-index="13"></path>

<path fill="#177F5A" opacity="1.000000" stroke="none" d="
M49.699883,126.069977 
	C49.577465,127.794594 49.129047,129.718719 48.445168,131.920105 
	C48.597763,130.221405 48.985825,128.245438 49.699883,126.069977 
z" data-index="15" style="visibility: hidden;"></path>
<path fill="#177F5A" opacity="1.000000" stroke="none" d="
M47.079338,368.189026 
	C47.783588,369.632629 48.399433,371.461578 49.009544,373.680176 
	C48.332851,372.237976 47.661892,370.406219 47.079338,368.189026 
z" data-index="16"></path>
<path fill="#177F5A" opacity="1.000000" stroke="none" d="
M67.981979,413.357208 
	C68.905968,414.145355 69.879433,415.260406 70.902130,416.710846 
	C69.978058,415.925507 69.004753,414.804810 67.981979,413.357208 
z" data-index="17"></path>

<path fill="#177F5A" opacity="1.000000" stroke="none" d="
M53.742706,115.126900 
	C53.600365,116.182121 53.157661,117.407982 52.488792,118.873840 
	C52.655861,117.841743 53.049099,116.569641 53.742706,115.126900 
z" data-index="19" style="visibility: hidden;"></path>

<path fill="#177F5A" opacity="1.000000" stroke="none" d="
M47.730812,133.933167 
	C47.764458,134.677429 47.531483,135.534424 47.152779,136.690399 
	C47.159428,136.008224 47.311810,135.027039 47.730812,133.933167 
z" data-index="21" style="visibility: hidden;"></path>

<path fill="#177F5A" opacity="1.000000" stroke="none" d="
M46.833870,365.096191 
	C47.021343,365.021973 47.041695,365.483826 47.037071,365.715088 
	C46.903763,365.687683 46.775078,365.429047 46.833870,365.096191 
z" data-index="23"></path>

<path fill="#177F5A" opacity="1.000000" stroke="none" d="
M57.683800,105.948997 
	C57.784740,106.127571 57.613750,106.423447 57.296196,106.931702 
	C57.237045,106.784813 57.324459,106.425560 57.683800,105.948997 
z" data-index="25" style="visibility: hidden;"></path>

<path fill="#177F5A" opacity="1.000000" stroke="none" d="
M59.677483,102.004639 
	C59.806904,102.215271 59.633377,102.489914 59.299873,102.952812 
	C59.234211,102.793755 59.312428,102.436287 59.677483,102.004639 
z" data-index="27" style="visibility: hidden;"></path>
<path fill="#000000" opacity="1.000000" stroke="none" d="
M150.016556,393.937073 
	C149.929062,393.641296 149.765808,393.395935 149.241013,392.822906 
	C148.641373,392.263916 148.327515,392.082947 148.013641,391.902008 
	C147.888596,391.622375 147.701385,391.393585 147.225922,390.725220 
	C145.658890,385.458008 144.317978,380.681274 142.977051,375.904510 
	C142.977051,375.904510 142.927780,375.478149 142.948242,374.799316 
	C142.878754,368.074982 142.788834,362.029510 142.698914,355.984009 
	C142.743011,354.616730 142.787109,353.249481 142.898865,351.034698 
	C143.313171,347.627167 143.621201,345.061218 144.014191,342.508331 
	C144.915482,336.653809 145.858200,330.805634 146.784088,324.954895 
	C146.842102,324.527283 146.900116,324.099701 147.326660,323.148224 
	C148.841797,318.752716 149.988373,314.881042 151.134949,311.009399 
	C155.684052,302.461273 159.781235,293.631348 164.892685,285.433838 
	C171.832962,274.303345 180.915863,264.870728 191.611343,257.273834 
	C210.222519,244.054474 229.326584,231.520187 247.759933,218.063004 
	C257.366699,211.049652 265.003326,201.938507 268.366241,190.062515 
	C268.818695,188.464798 269.103912,186.104843 268.273895,184.970718 
	C260.912506,174.912308 257.988831,163.511948 259.052734,151.414856 
	C259.924774,141.498901 263.828857,132.358231 270.925629,125.034126 
	C280.631378,115.017380 292.445038,109.663086 306.529510,109.991600 
	C317.771057,110.253815 327.430756,115.106346 335.395447,122.408745 
	C342.349579,128.784637 347.419495,136.732605 349.272797,146.555771 
	C351.424622,157.961258 349.757263,168.508942 344.193115,178.496384 
	C337.138184,191.159729 326.069946,197.452744 312.130798,201.324371 
	C301.460785,204.287949 293.176025,200.135498 283.842621,197.282700 
	C281.036621,201.916351 278.709503,206.905212 275.344788,211.052231 
	C270.034851,217.596817 264.667145,224.367264 258.170502,229.613922 
	C247.778244,238.006683 236.539444,245.373718 225.478729,252.910507 
	C211.614853,262.357361 196.770691,270.753052 185.578979,283.372864 
	C175.120941,295.165375 168.257828,309.155457 163.698242,324.593292 
	C159.146118,340.005890 159.271713,355.479736 159.053436,371.990295 
	C159.709824,376.603699 160.379257,380.335541 161.048706,384.067413 
	C161.059219,385.087769 161.069717,386.108124 160.768005,387.605835 
	C160.366287,388.422974 160.276764,388.762726 160.187256,389.102509 
	C160.187241,389.102509 160.113831,389.470825 159.734741,389.763672 
	C158.218658,391.358246 157.081680,392.659973 155.944717,393.961731 
	C155.944717,393.961731 155.993820,393.990784 155.563965,393.985596 
	C153.428253,393.966003 151.722397,393.951538 150.016556,393.937073 
M279.211914,139.772202 
	C270.181732,152.828262 273.344360,171.742737 286.172058,180.380829 
	C300.524780,190.045883 320.005524,187.123184 329.161865,173.628143 
	C340.573822,156.808594 334.687408,140.520355 321.880005,131.740387 
	C306.847168,121.434807 287.924072,125.385788 279.211914,139.772202 
z" data-index="28" style="opacity: 1; visibility: visible; fill: rgb(255, 255, 255);"></path>
<path fill="#000000" opacity="1.000000" stroke="none" d="
M187.645599,365.365906 
	C190.006149,359.988831 191.346008,354.273743 194.643524,350.108490 
	C206.896530,334.631104 221.907791,322.388123 239.329803,312.804169 
	C255.663269,303.819000 271.388916,293.722595 287.295197,283.973511 
	C289.932983,282.356750 292.260529,280.152222 294.492065,277.974091 
	C297.518616,275.019989 300.881561,274.934845 303.807465,277.358917 
	C306.889404,279.912292 308.436493,283.487427 306.075775,287.486450 
	C305.085724,289.163635 303.982635,290.998627 302.453735,292.098480 
	C287.562988,302.810638 272.271667,312.736237 255.993042,321.434753 
	C236.955994,331.607300 218.662613,343.476135 205.092239,361.003876 
	C204.112198,362.269714 203.830292,364.052612 203.005295,365.467712 
	C201.857346,367.436707 200.872498,369.796204 199.139008,371.050079 
	C197.176239,372.469788 193.457474,374.236542 192.290298,373.389252 
	C190.037476,371.753845 189.040939,368.387878 187.645599,365.365906 
z" data-index="29" style="opacity: 1; visibility: visible; fill: rgb(255, 255, 255);"></path>
<path fill="#000000" opacity="1.000000" stroke="none" d="
M231.343109,274.275208 
	C240.826508,268.840790 250.081848,263.748718 259.112946,258.285889 
	C269.933838,251.740463 280.359344,244.621613 288.661499,234.864532 
	C291.066772,232.037720 295.552399,231.360825 298.262878,233.931107 
	C300.763947,236.302826 303.378143,238.365570 300.582977,243.074249 
	C294.122711,253.957077 283.632904,260.008392 273.942017,266.998352 
	C266.442047,272.408051 258.444244,277.140533 250.565262,282.008118 
	C243.201279,286.557526 235.250259,290.289703 228.382889,295.474640 
	C220.662811,301.303345 212.017059,306.303558 206.910492,315.172455 
	C204.934082,318.605042 198.148666,319.723724 195.483078,317.636536 
	C192.579041,315.362671 191.985458,309.518829 194.844482,305.822723 
	C203.140091,295.098419 213.025314,286.054199 224.527725,278.814056 
	C226.731995,277.426605 228.855148,275.910248 231.343109,274.275208 
z" data-index="30" style="opacity: 1; visibility: visible; fill: rgb(255, 255, 255);"></path>
<path fill="#000000" opacity="1.000000" stroke="none" d="
M222.960175,391.979645 
	C220.721527,396.185089 216.195923,398.357513 213.144699,396.493652 
	C209.854187,394.483673 208.362244,391.553772 209.595932,387.290497 
	C213.578827,373.526855 222.054764,363.432617 234.041809,355.955811 
	C242.941071,350.404968 251.792603,344.774567 260.574829,339.040833 
	C263.432892,337.174835 266.019562,334.889221 268.704102,332.762329 
	C272.087921,330.081482 276.117065,330.125641 278.402435,332.908081 
	C281.967316,337.248322 282.013397,340.381592 278.487854,343.726929 
	C267.975067,353.702362 255.712692,361.141998 243.377258,368.600464 
	C234.379395,374.040955 227.089462,381.533386 222.960175,391.979645 
z" data-index="31" style="opacity: 1; visibility: visible; fill: rgb(255, 255, 255); stroke: rgb(255, 255, 255);"></path>
<path fill="#187F5A" opacity="1.000000" stroke="none" d="
M146.562729,325.227905 
	C145.858200,330.805634 144.915482,336.653809 144.014191,342.508331 
	C143.621201,345.061218 143.313171,347.627167 142.877686,350.624634 
	C141.054321,342.136047 143.235092,333.754150 146.562729,325.227905 
z" data-index="32"></path>
<path fill="#187F5A" opacity="1.000000" stroke="none" d="
M142.487991,356.285034 
	C142.788834,362.029510 142.878754,368.074982 142.896164,374.591125 
	C142.641449,368.903229 142.459259,362.744659 142.487991,356.285034 
z" data-index="33"></path>
<path fill="#187F5A" opacity="1.000000" stroke="none" d="
M142.966721,376.350555 
	C144.317978,380.681274 145.658890,385.458008 147.025543,390.625671 
	C142.507095,387.192108 143.684921,381.719879 142.966721,376.350555 
z" data-index="34"></path>
<path fill="#187F5A" opacity="1.000000" stroke="none" d="
M150.887024,311.260925 
	C149.988373,314.881042 148.841797,318.752716 147.395264,322.831787 
	C148.276566,319.196960 149.457840,315.354675 150.887024,311.260925 
z" data-index="35"></path>
<path fill="#187F5A" opacity="1.000000" stroke="none" d="
M161.169434,383.713135 
	C160.379257,380.335541 159.709824,376.603699 159.100464,372.459839 
	C159.870422,375.818207 160.580292,379.588501 161.169434,383.713135 
z" data-index="36"></path>
<path fill="#187F5A" opacity="1.000000" stroke="none" d="
M156.274933,393.861389 
	C157.081680,392.659973 158.218658,391.358246 159.678040,389.942688 
	C158.868683,391.139648 157.736908,392.450378 156.274933,393.861389 
z" data-index="37"></path>
<path fill="#187F5A" opacity="1.000000" stroke="none" d="
M150.328339,394.092682 
	C151.722397,393.951538 153.428253,393.966003 155.560410,393.957306 
	C154.204529,394.038879 152.422318,394.143585 150.328339,394.092682 
z" data-index="38"></path>
<path fill="#187F5A" opacity="1.000000" stroke="none" d="
M160.339142,388.912231 
	C160.276764,388.762726 160.366287,388.422974 160.722488,387.985962 
	C160.854874,388.185486 160.688828,388.463226 160.339142,388.912231 
z" data-index="39"></path>
<path fill="#187F5A" opacity="1.000000" stroke="none" d="
M148.179596,392.102814 
	C148.327515,392.082947 148.641373,392.263916 149.048126,392.709686 
	C148.875854,392.750885 148.610718,392.527252 148.179596,392.102814 
z" data-index="40"></path>
<path fill="#099161" opacity="1.000000" stroke="none" d="
M279.402588,139.454727 
	C287.924072,125.385788 306.847168,121.434807 321.880005,131.740387 
	C334.687408,140.520355 340.573822,156.808594 329.161865,173.628143 
	C320.005524,187.123184 300.524780,190.045883 286.172058,180.380829 
	C273.344360,171.742737 270.181732,152.828262 279.402588,139.454727 
z" data-index="41"></path>
</svg>