<?xml version="1.0" encoding="UTF-8"?>
<svg version="1.1" xmlns="http://www.w3.org/2000/svg" width="500" height="500">
<path d="M0 0 C1.85900469 -0.0046357 3.71800844 -0.00966136 5.57701111 -0.01504517 C10.60659384 -0.02810283 15.63616326 -0.03460165 20.66576028 -0.03905582 C23.81817757 -0.04199863 26.97059133 -0.04610575 30.12300682 -0.05056 C40.01524757 -0.06422039 49.90748012 -0.07389294 59.79972965 -0.07776189 C71.16390361 -0.08223259 82.5279567 -0.09974067 93.89209396 -0.12876248 C102.71123694 -0.15049151 111.5303462 -0.16047219 120.34951562 -0.16180301 C125.59995863 -0.16284347 130.85028781 -0.168587 136.10070229 -0.18662262 C141.05105888 -0.20329757 146.00121845 -0.20516635 150.9515934 -0.19648361 C152.7504632 -0.19572337 154.54934446 -0.19991878 156.34818649 -0.20994186 C185.21633376 -0.36112533 210.60461647 5.60164797 235.57299805 20.16113281 C235.57299805 20.82113281 235.57299805 21.48113281 235.57299805 22.16113281 C236.56299805 22.16113281 237.55299805 22.16113281 238.57299805 22.16113281 C238.57299805 22.82113281 238.57299805 23.48113281 238.57299805 24.16113281 C239.2897168 24.40089844 240.00643555 24.64066406 240.74487305 24.88769531 C250.33671749 29.20667499 258.00099919 39.46606298 263.57299805 48.16113281 C263.57299805 48.82113281 263.57299805 49.48113281 263.57299805 50.16113281 C264.23299805 50.16113281 264.89299805 50.16113281 265.57299805 50.16113281 C272.82422141 62.45899515 278.11139861 75.16114028 281.44799805 89.03613281 C281.65110596 89.87901855 281.85421387 90.7219043 282.06347656 91.59033203 C284.8675793 104.01768825 284.72224674 116.49843332 284.71826172 129.1640625 C284.72125839 131.07235784 284.72466208 132.98065258 284.72843933 134.88894653 C284.73723164 140.04616589 284.73961542 145.20336862 284.74025512 150.36059475 C284.74096831 153.58985756 284.74310771 156.81911622 284.74575233 160.04837799 C284.75498985 171.33466355 284.7590892 182.62093734 284.75830078 193.90722656 C284.75770036 204.39485054 284.76824928 214.88242302 284.78404444 225.37003398 C284.7971585 234.40226505 284.80248306 243.43447936 284.80184537 252.46671987 C284.80159153 257.84883136 284.80437961 263.23089703 284.81502342 268.61299896 C284.82476976 273.6790485 284.82473919 278.74500902 284.81750679 283.81106186 C284.81646904 285.65921281 284.81877508 287.50736951 284.82486725 289.35551071 C284.8682647 303.44491035 284.06788435 317.05305353 280.32299805 330.72363281 C280.10538818 331.52389893 279.88777832 332.32416504 279.66357422 333.14868164 C275.86657344 346.62204057 269.76087292 358.8218097 261.57299805 370.16113281 C260.91299805 370.16113281 260.25299805 370.16113281 259.57299805 370.16113281 C259.3512793 370.87140625 259.12956055 371.58167969 258.90112305 372.31347656 C257.28693294 375.77449005 255.02894422 378.10836848 252.32299805 380.72363281 C251.3897168 381.65304687 250.45643555 382.58246094 249.49487305 383.54003906 C242.11398165 390.16113281 242.11398165 390.16113281 238.57299805 390.16113281 C238.57299805 390.82113281 238.57299805 391.48113281 238.57299805 392.16113281 C214.67406645 410.73949934 182.56471573 414.4813822 153.35717773 414.43579102 C151.48581237 414.44015016 149.61444878 414.44533725 147.74308777 414.45127869 C142.70770851 414.4645517 137.67240484 414.46526046 132.63701153 414.46271539 C128.41054452 414.46163753 124.1840923 414.46654976 119.95762849 414.47132081 C109.97377533 414.48237587 99.98995981 414.48287623 90.00610352 414.47680664 C79.75872231 414.47077194 69.51147858 414.48307438 59.26412082 414.50437671 C50.41853939 414.52207852 41.57300138 414.52798057 32.72740293 414.52473897 C27.4653532 414.52293936 22.20340154 414.52542826 16.9413681 414.53945351 C11.98681926 414.55216768 7.03248233 414.54996149 2.07793617 414.53704262 C0.27703335 414.53470641 -1.52388505 414.53730288 -3.32476997 414.54566574 C-31.14402283 414.66536707 -57.67980433 409.1536032 -81.42700195 394.16113281 C-82.11149414 393.74476563 -82.79598633 393.32839844 -83.5012207 392.89941406 C-85.17700195 391.84863281 -85.17700195 391.84863281 -87.42700195 390.16113281 C-87.42700195 389.50113281 -87.42700195 388.84113281 -87.42700195 388.16113281 C-88.74700195 387.83113281 -90.06700195 387.50113281 -91.42700195 387.16113281 C-91.42700195 386.50113281 -91.42700195 385.84113281 -91.42700195 385.16113281 C-92.00321289 384.91105469 -92.57942383 384.66097656 -93.1730957 384.40332031 C-95.73301656 382.99248005 -97.44688673 381.37204046 -99.48950195 379.28613281 C-100.4969043 378.2690625 -100.4969043 378.2690625 -101.5246582 377.23144531 C-106.42700195 371.89624575 -106.42700195 371.89624575 -106.42700195 369.16113281 C-107.08700195 369.16113281 -107.74700195 369.16113281 -108.42700195 369.16113281 C-116.98578642 359.34851368 -122.25527857 345.82032942 -125.80200195 333.47363281 C-126.04047852 332.64379883 -126.27895508 331.81396484 -126.5246582 330.95898438 C-130.20606284 317.35587506 -130.72197874 304.12501869 -130.70166016 290.13671875 C-130.70601536 288.14270335 -130.71120119 286.14868963 -130.71714783 284.15467834 C-130.73046328 278.7722279 -130.73112475 273.38984799 -130.72858453 268.0073843 C-130.72750956 263.49745796 -130.73241167 258.98754559 -130.73718995 254.47762227 C-130.74825976 243.82800694 -130.74873704 233.17842689 -130.74267578 222.52880859 C-130.73664014 211.58104383 -130.7489425 200.63340772 -130.77024585 189.68566489 C-130.78792144 180.25166122 -130.79385377 170.81769828 -130.79060811 161.38367867 C-130.78880431 155.76453667 -130.7913404 150.14548641 -130.80532265 144.52635956 C-130.81799343 139.23698761 -130.81587031 133.94781462 -130.80291176 128.65844536 C-130.80056629 126.73050555 -130.80320668 124.80255132 -130.81153488 122.87462807 C-130.87418532 107.22860271 -129.40483217 92.41923687 -124.23950195 77.53613281 C-123.79102905 76.21983887 -123.79102905 76.21983887 -123.33349609 74.87695312 C-119.46124785 63.91508125 -114.00959623 52.07188851 -106.42700195 43.16113281 C-105.76700195 43.16113281 -105.10700195 43.16113281 -104.42700195 43.16113281 C-104.11762695 42.54238281 -103.80825195 41.92363281 -103.48950195 41.28613281 C-102.80200195 39.91113281 -102.11450195 38.53613281 -101.42700195 37.16113281 C-100.76700195 37.16113281 -100.10700195 37.16113281 -99.42700195 37.16113281 C-99.42700195 36.50113281 -99.42700195 35.84113281 -99.42700195 35.16113281 C-98.76700195 35.16113281 -98.10700195 35.16113281 -97.42700195 35.16113281 C-97.42700195 34.50113281 -97.42700195 33.84113281 -97.42700195 33.16113281 C-96.76700195 33.16113281 -96.10700195 33.16113281 -95.42700195 33.16113281 C-95.42700195 32.50113281 -95.42700195 31.84113281 -95.42700195 31.16113281 C-94.76700195 31.16113281 -94.10700195 31.16113281 -93.42700195 31.16113281 C-93.42700195 30.50113281 -93.42700195 29.84113281 -93.42700195 29.16113281 C-91.96606445 27.87207031 -91.96606445 27.87207031 -90.05200195 26.53613281 C-89.42551758 26.09011719 -88.7990332 25.64410156 -88.15356445 25.18457031 C-86.42700195 24.16113281 -86.42700195 24.16113281 -84.42700195 24.16113281 C-84.42700195 23.50113281 -84.42700195 22.84113281 -84.42700195 22.16113281 C-83.43700195 22.16113281 -82.44700195 22.16113281 -81.42700195 22.16113281 C-81.42700195 21.50113281 -81.42700195 20.84113281 -81.42700195 20.16113281 C-74.80200195 16.16113281 -74.80200195 16.16113281 -71.42700195 16.16113281 C-71.42700195 15.50113281 -71.42700195 14.84113281 -71.42700195 14.16113281 C-47.92376398 4.12206132 -25.48845042 0.0148687 0 0 Z M97.57299805 79.16113281 C97.57299805 79.82113281 97.57299805 80.48113281 97.57299805 81.16113281 C96.91299805 81.16113281 96.25299805 81.16113281 95.57299805 81.16113281 C94.91299805 82.81113281 94.25299805 84.46113281 93.57299805 86.16113281 C92.91299805 86.16113281 92.25299805 86.16113281 91.57299805 86.16113281 C90.77492606 87.84561299 89.98487503 89.53389408 89.19799805 91.22363281 C88.75713867 92.16335937 88.3162793 93.10308594 87.86206055 94.07128906 C82.61711104 106.64327408 83.21735035 118.73519482 88.1940918 131.14160156 C89.79596695 134.64939051 91.4882637 137.91821272 93.57299805 141.16113281 C94.23299805 141.16113281 94.89299805 141.16113281 95.57299805 141.16113281 C90.78346697 154.39123096 90.78346697 154.39123096 86.57299805 160.16113281 C86.57299805 160.82113281 86.57299805 161.48113281 86.57299805 162.16113281 C85.91299805 162.16113281 85.25299805 162.16113281 84.57299805 162.16113281 C82.93830905 163.81561965 82.93830905 163.81561965 81.26049805 165.91113281 C78.5853757 169.0787463 75.83374119 171.59206246 72.57299805 174.16113281 C72.57299805 174.82113281 72.57299805 175.48113281 72.57299805 176.16113281 C72.0006543 176.43957031 71.42831055 176.71800781 70.83862305 177.00488281 C68.60682239 178.14387074 66.46428931 179.36049664 64.32299805 180.66113281 C63.6165918 181.08394531 62.91018555 181.50675781 62.18237305 181.94238281 C61.38573242 182.54566406 61.38573242 182.54566406 60.57299805 183.16113281 C60.57299805 183.82113281 60.57299805 184.48113281 60.57299805 185.16113281 C59.88850586 185.39832031 59.20401367 185.63550781 58.4987793 185.87988281 C54.96801406 187.42606572 51.91999074 189.48346455 48.76049805 191.66113281 C43.3555181 195.33292123 37.88828516 198.86257135 32.32299805 202.28613281 C22.5998036 208.23739359 22.5998036 208.23739359 13.57299805 215.16113281 C13.57299805 215.82113281 13.57299805 216.48113281 13.57299805 217.16113281 C13.0315918 217.37769531 12.49018555 217.59425781 11.93237305 217.81738281 C8.75654461 219.62613278 6.36571723 222.07837081 3.82299805 224.66113281 C3.31639648 225.16 2.80979492 225.65886719 2.2878418 226.17285156 C-0.55505795 228.69174919 -0.55505795 228.69174919 -1.42700195 232.16113281 C-2.08700195 232.16113281 -2.74700195 232.16113281 -3.42700195 232.16113281 C-23.04865581 255.17680247 -31.81244199 285.98912641 -31.73950195 315.66113281 C-31.75561523 316.97210938 -31.77172852 318.28308594 -31.78833008 319.63378906 C-31.79298955 329.01796982 -31.55350256 339.92149053 -26.42700195 348.16113281 C-23.65256719 349.75266089 -23.65256719 349.75266089 -20.42700195 350.16113281 C-17.48249302 348.85246217 -15.87998764 348.06710418 -14.42700195 345.16113281 C-14.42254923 342.96130192 -14.48703695 340.76120686 -14.58325195 338.56347656 C-14.63805085 337.19907022 -14.69247999 335.83464899 -14.74658203 334.47021484 C-14.77652252 333.75593323 -14.80646301 333.04165161 -14.83731079 332.3057251 C-16.32688208 295.65081709 -10.83455129 265.66853738 13.57299805 237.16113281 C14.56299805 236.50113281 15.55299805 235.84113281 16.57299805 235.16113281 C16.57299805 234.50113281 16.57299805 233.84113281 16.57299805 233.16113281 C17.23299805 233.16113281 17.89299805 233.16113281 18.57299805 233.16113281 C18.57299805 232.50113281 18.57299805 231.84113281 18.57299805 231.16113281 C19.17112305 230.87238281 19.76924805 230.58363281 20.38549805 230.28613281 C22.76627597 229.11371256 22.76627597 229.11371256 25.57299805 227.16113281 C25.57299805 226.50113281 25.57299805 225.84113281 25.57299805 225.16113281 C26.30518555 224.89558594 27.03737305 224.63003906 27.79174805 224.35644531 C30.55558616 223.16861601 32.65659747 221.81533187 35.07299805 220.03613281 C41.57527006 215.37486552 48.40942088 210.7429214 55.57299805 207.16113281 C55.57299805 206.50113281 55.57299805 205.84113281 55.57299805 205.16113281 C57.55299805 204.50113281 59.53299805 203.84113281 61.57299805 203.16113281 C61.57299805 202.50113281 61.57299805 201.84113281 61.57299805 201.16113281 C62.44589478 200.9956897 62.44589478 200.9956897 63.33642578 200.8269043 C65.8245378 200.08625574 67.30636671 199.08690563 69.3581543 197.50878906 C70.05360352 196.97962891 70.74905273 196.45046875 71.46557617 195.90527344 C72.18165039 195.35033203 72.89772461 194.79539063 73.63549805 194.22363281 C75.06344923 193.13061736 76.49181848 192.03814782 77.9206543 190.94628906 C78.8643689 190.21744507 78.8643689 190.21744507 79.82714844 189.47387695 C81.36910828 188.31444218 82.9677815 187.23127718 84.57299805 186.16113281 C84.57299805 185.50113281 84.57299805 184.84113281 84.57299805 184.16113281 C85.23299805 184.16113281 85.89299805 184.16113281 86.57299805 184.16113281 C86.57299805 183.50113281 86.57299805 182.84113281 86.57299805 182.16113281 C87.50112305 181.78988281 87.50112305 181.78988281 88.44799805 181.41113281 C90.92368491 179.95484642 91.52424807 178.78300775 92.57299805 176.16113281 C93.23299805 176.16113281 93.89299805 176.16113281 94.57299805 176.16113281 C95.23299805 174.51113281 95.89299805 172.86113281 96.57299805 171.16113281 C97.23299805 171.16113281 97.89299805 171.16113281 98.57299805 171.16113281 C101.76859846 167.09539721 101.76859846 167.09539721 102.57299805 162.16113281 C103.23299805 162.16113281 103.89299805 162.16113281 104.57299805 162.16113281 C105.89299805 159.19113281 107.21299805 156.22113281 108.57299805 153.16113281 C109.60038086 153.52207031 110.62776367 153.88300781 111.6862793 154.25488281 C119.76514655 156.9993316 126.94018097 159.15882596 135.57299805 158.16113281 C136.6693457 158.05285156 136.6693457 158.05285156 137.7878418 157.94238281 C148.56944111 156.22668527 158.8726327 149.65132179 165.57299805 141.16113281 C173.89882887 129.24264896 177.28299605 116.65385666 174.88549805 102.22363281 C172.12771008 90.00247654 164.52650807 80.55692973 154.57299805 73.16113281 C136.10496537 62.41285656 113.3096823 63.83857183 97.57299805 79.16113281 Z M115.69799805 189.41113281 C114.64612305 190.27738281 114.64612305 190.27738281 113.57299805 191.16113281 C113.57299805 191.82113281 113.57299805 192.48113281 113.57299805 193.16113281 C112.91299805 193.16113281 112.25299805 193.16113281 111.57299805 193.16113281 C111.57299805 193.82113281 111.57299805 194.48113281 111.57299805 195.16113281 C110.9903418 195.4228125 110.40768555 195.68449219 109.80737305 195.95410156 C107.4499482 197.22760555 105.77957648 198.65045746 103.82299805 200.47363281 C100.44642481 203.52016506 96.9982531 205.88882564 93.04174805 208.11816406 C92.55706055 208.46234375 92.07237305 208.80652344 91.57299805 209.16113281 C91.57299805 209.82113281 91.57299805 210.48113281 91.57299805 211.16113281 C90.98147949 211.28713867 90.38996094 211.41314453 89.78051758 211.54296875 C86.32654436 212.51017293 83.46627782 214.52683844 80.44799805 216.41113281 C74.6286234 219.9810967 68.76215859 223.26314941 62.57299805 226.16113281 C62.57299805 226.82113281 62.57299805 227.48113281 62.57299805 228.16113281 C62.04577148 228.24621094 61.51854492 228.33128906 60.9753418 228.41894531 C57.69514542 229.43233931 54.99359108 231.18336542 52.13549805 233.03613281 C51.52440186 233.43106934 50.91330566 233.82600586 50.28369141 234.23291016 C40.92173278 240.42926245 32.14972661 247.87959229 24.57299805 256.16113281 C24.57299805 256.82113281 24.57299805 257.48113281 24.57299805 258.16113281 C23.91299805 258.16113281 23.25299805 258.16113281 22.57299805 258.16113281 C19.91360346 262.10993083 18.59076991 264.09482077 18.51049805 268.91113281 C19.31406686 272.24646686 19.31406686 272.24646686 21.76049805 274.22363281 C25.46369014 275.45803018 27.09413436 274.82493719 30.57299805 273.16113281 C32.45190239 271.78607182 32.45190239 271.78607182 33.57299805 270.16113281 C33.57299805 269.50113281 33.57299805 268.84113281 33.57299805 268.16113281 C34.23299805 268.16113281 34.89299805 268.16113281 35.57299805 268.16113281 C35.57299805 267.50113281 35.57299805 266.84113281 35.57299805 266.16113281 C36.23299805 266.16113281 36.89299805 266.16113281 37.57299805 266.16113281 C38.72906041 265.04010265 39.87854946 263.91183151 41.00268555 262.75878906 C51.71859487 251.8562843 64.72292957 243.21964854 78.51831055 236.70410156 C89.62815514 231.09235142 99.77797843 223.7881465 109.57299805 216.16113281 C110.3412793 215.62359375 111.10956055 215.08605469 111.90112305 214.53222656 C112.4528418 214.07976562 113.00456055 213.62730469 113.57299805 213.16113281 C113.57299805 212.50113281 113.57299805 211.84113281 113.57299805 211.16113281 C114.13631836 210.93167969 114.69963867 210.70222656 115.2800293 210.46582031 C118.18692053 208.81181406 120.02896934 206.77216644 122.26049805 204.28613281 C123.04811523 203.42246094 123.83573242 202.55878906 124.6472168 201.66894531 C126.44311424 199.33027156 127.31503402 198.06015713 127.57299805 195.16113281 C126.15677351 191.66222514 125.06292031 190.41674443 121.69799805 188.66113281 C118.54077876 187.86827197 118.54077876 187.86827197 115.69799805 189.41113281 Z M115.76049805 236.72363281 C114.71616012 237.64967897 113.66925106 238.57283315 112.61987305 239.49316406 C112.10618164 239.94900879 111.59249023 240.40485352 111.06323242 240.87451172 C99.80546162 250.59411397 85.79418302 256.62518942 72.57299805 263.16113281 C72.57299805 263.82113281 72.57299805 264.48113281 72.57299805 265.16113281 C71.75702148 265.31195313 71.75702148 265.31195313 70.92456055 265.46582031 C52.73489465 270.84416006 26.90369574 292.73758769 17.57299805 309.16113281 C17.57299805 310.15113281 17.57299805 311.14113281 17.57299805 312.16113281 C16.91299805 312.16113281 16.25299805 312.16113281 15.57299805 312.16113281 C13.10104938 318.52667184 13.10104938 318.52667184 13.19799805 325.16113281 C14.5768667 327.43193851 14.5768667 327.43193851 17.57299805 329.16113281 C21.08088057 329.39866589 21.08088057 329.39866589 24.57299805 328.16113281 C27.28137843 325.0727707 28.92474904 321.21268912 29.57299805 317.16113281 C30.23299805 317.16113281 30.89299805 317.16113281 31.57299805 317.16113281 C32.7413692 315.73550142 32.7413692 315.73550142 33.94799805 313.84863281 C40.67818429 304.59052296 50.03246207 297.33177774 59.57299805 291.16113281 C60.44569336 290.58878906 61.31838867 290.01644531 62.2175293 289.42675781 C72.02923173 283.08213764 82.05356109 277.24933873 92.57299805 272.16113281 C93.90724399 271.49629451 95.24087793 270.83022042 96.57299805 270.16113281 C96.57299805 269.50113281 96.57299805 268.84113281 96.57299805 268.16113281 C97.14147461 268.04640625 97.70995117 267.93167969 98.2956543 267.81347656 C107.71715174 265.11469428 116.0285042 257.18904901 123.57299805 251.16113281 C124.42120117 250.51660156 125.2694043 249.87207031 126.14331055 249.20800781 C129.65565186 246.41324161 131.33191775 244.86026567 132.82299805 240.53613281 C132.78890233 237.11525297 132.78890233 237.11525297 131.07299805 234.22363281 C128.68225497 231.87650777 128.68225497 231.87650777 125.2800293 231.74707031 C120.68611143 232.26019496 119.13600815 233.62518236 115.76049805 236.72363281 Z M90.51049805 291.09863281 C82.32783085 298.2458043 73.22874546 303.80567181 63.68237305 308.97363281 C59.85213942 311.12991248 55.99868018 313.3995309 52.57299805 316.16113281 C52.57299805 316.82113281 52.57299805 317.48113281 52.57299805 318.16113281 C51.73768555 318.47050781 51.73768555 318.47050781 50.88549805 318.78613281 C47.60287433 320.73796313 45.86626559 323.10344276 43.57299805 326.16113281 C43.57299805 326.82113281 43.57299805 327.48113281 43.57299805 328.16113281 C42.91299805 328.16113281 42.25299805 328.16113281 41.57299805 328.16113281 C36.12077835 337.6288998 36.12077835 337.6288998 34.57299805 348.16113281 C36.44940975 351.37126328 36.44940975 351.37126328 39.57299805 353.16113281 C42.78886479 353.16113281 44.65066347 352.92593995 47.15112305 350.85253906 C48.72659439 348.97842068 49.3726295 347.39549175 50.19799805 345.09863281 C54.44122555 335.21384148 62.70842995 328.75922855 71.57299805 323.16113281 C72.29970703 322.69884277 73.02641602 322.23655273 73.77514648 321.76025391 C77.90156604 319.13532394 82.03666676 316.52501905 86.18237305 313.93066406 C87.64597826 313.00758773 89.10952474 312.08441826 90.57299805 311.16113281 C91.20399414 310.77103027 91.83499023 310.38092773 92.48510742 309.97900391 C93.88290079 309.09288812 95.23463258 308.13468576 96.57299805 307.16113281 C96.57299805 306.50113281 96.57299805 305.84113281 96.57299805 305.16113281 C98.57299805 304.16113281 100.57299805 303.16113281 102.57299805 302.16113281 C102.57299805 301.50113281 102.57299805 300.84113281 102.57299805 300.16113281 C103.23299805 300.16113281 103.89299805 300.16113281 104.57299805 300.16113281 C106.10146466 297.10419959 105.8054225 294.53128734 105.57299805 291.16113281 C104.68970161 288.62155047 104.68970161 288.62155047 102.57299805 287.16113281 C96.99289777 286.58069685 94.59224337 287.31444737 90.51049805 291.09863281 Z " fill="#079362" transform="translate(173.427001953125,42.8388671875)"/>
<path d="M0 0 C6.86123366 4.58760917 12.13077914 9.67851034 15.2421875 17.45703125 C17.05569988 26.8268452 16.83841994 35.31952996 11.6328125 43.45703125 C6.79590754 50.23867119 1.13083731 55.09789209 -7.0078125 57.33203125 C-15.80414359 58.28608018 -23.36875901 57.97979222 -31.0078125 53.33203125 C-32.0803125 52.73390625 -33.1528125 52.13578125 -34.2578125 51.51953125 C-40.61520818 46.46251196 -43.51604515 40.25343151 -45.0078125 32.33203125 C-45.93160223 23.35988172 -44.48385823 14.71278854 -39.0078125 7.33203125 C-38.3478125 7.33203125 -37.6878125 7.33203125 -37.0078125 7.33203125 C-37.0078125 6.67203125 -37.0078125 6.01203125 -37.0078125 5.33203125 C-35.25 3.89453125 -35.25 3.89453125 -32.8828125 2.33203125 C-32.11710937 1.81640625 -31.35140625 1.30078125 -30.5625 0.76953125 C-21.59717527 -4.27517746 -9.18045553 -4.90201682 0 0 Z " fill="#099362" transform="translate(318.0078125,127.66796875)"/>
<path d="M0 0 C4.95 1.98 4.95 1.98 10 4 C10 3.34 10 2.68 10 2 C11.32 2.66 12.64 3.32 14 4 C14 4.99 14 5.98 14 7 C16.43757413 7.02698422 18.87484915 7.04683099 21.3125 7.0625 C22.00279297 7.07087891 22.69308594 7.07925781 23.40429688 7.08789062 C26.5483025 7.10307906 28.99420019 7.00193327 32 6 C32 5.34 32 4.68 32 4 C35.3 3.67 38.6 3.34 42 3 C36.24188217 8.75811783 30.60257668 10.28035184 22.5 10.5 C16.12959179 10.32145002 11.421148 9.32045315 6 6 C5.38125 5.64164063 4.7625 5.28328125 4.125 4.9140625 C2.4375 3.875 2.4375 3.875 0 2 C0 1.34 0 0.68 0 0 Z " fill="#248764" transform="translate(281,175)"/>
<path d="M0 0 C-4.625 4.875 -4.625 4.875 -8 6 C-8 6.66 -8 7.32 -8 8 C-9.5390625 9.55078125 -9.5390625 9.55078125 -11.625 11.3125 C-12.34945312 11.92867188 -13.07390625 12.54484375 -13.8203125 13.1796875 C-14.53960937 13.78039062 -15.25890625 14.38109375 -16 15 C-16.92425781 15.77730469 -16.92425781 15.77730469 -17.8671875 16.5703125 C-19.23975123 17.71958835 -20.6190983 18.8607561 -22 20 C-22.33 18.35 -22.66 16.7 -23 15 C-20 13 -20 13 -16 13 C-15.67 11.68 -15.34 10.36 -15 9 C-14.01 9 -13.02 9 -12 9 C-11.34 7.68 -10.68 6.36 -10 5 C-9.34 5 -8.68 5 -8 5 C-8.33 3.68 -8.66 2.36 -9 1 C-3.375 -1.125 -3.375 -1.125 0 0 Z " fill="#419C7B" transform="translate(195,252)"/>
<path d="M0 0 C1.05128687 3.23529832 0.91901775 5.39722097 0.125 8.6875 C-0.05804688 9.47511719 -0.24109375 10.26273437 -0.4296875 11.07421875 C-1 13 -1 13 -2 14 C-1.34 14.33 -0.68 14.66 0 15 C-0.33 16.65 -0.66 18.3 -1 20 C-1.99 20 -2.98 20 -4 20 C-4.33 22.31 -4.66 24.62 -5 27 C-5.66 27 -6.32 27 -7 27 C-7.33 27.66 -7.66 28.32 -8 29 C-7.53417412 18.68195676 -4.79077243 9.14353137 0 0 Z " fill="#429F7D" transform="translate(167,309)"/>
<path d="M0 0 C0.33 0 0.66 0 1 0 C1.02505615 0.70495605 1.0501123 1.40991211 1.07592773 2.13623047 C1.19318042 5.38261447 1.3153115 8.62879817 1.4375 11.875 C1.47681641 12.98359375 1.51613281 14.0921875 1.55664062 15.234375 C1.78487214 21.20350688 2.149332 27.06483306 2.99633789 32.98095703 C3 35 3 35 1 38 C-2.0197813 25.44669425 -0.75495104 12.76404381 0 0 Z " fill="#369975" transform="translate(44,328)"/>
<path d="M0 0 C0.53109375 0.24621094 1.0621875 0.49242187 1.609375 0.74609375 C0.949375 1.40609375 0.289375 2.06609375 -0.390625 2.74609375 C-1.380625 2.74609375 -2.370625 2.74609375 -3.390625 2.74609375 C-3.6175 3.30296875 -3.844375 3.85984375 -4.078125 4.43359375 C-5.77680478 7.42650574 -7.81135187 9.48136612 -10.390625 11.74609375 C-11.380625 11.74609375 -12.370625 11.74609375 -13.390625 11.74609375 C-13.720625 10.42609375 -14.050625 9.10609375 -14.390625 7.74609375 C-12.4848257 6.37667507 -10.56555927 5.02598212 -8.640625 3.68359375 C-7.57328125 2.92949219 -6.5059375 2.17539062 -5.40625 1.3984375 C-2.390625 -0.25390625 -2.390625 -0.25390625 0 0 Z " fill="#329A75" transform="translate(253.390625,361.25390625)"/>
<path d="M0 0 C0.66 0.33 1.32 0.66 2 1 C1.34 1.66 0.68 2.32 0 3 C-0.66 2.67 -1.32 2.34 -2 2 C-2 2.66 -2 3.32 -2 4 C-10.31097656 7.10928299 -18.21095009 7.66015674 -27 8 C-26.67 7.01 -26.34 6.02 -26 5 C-25.16597656 4.95101562 -24.33195312 4.90203125 -23.47265625 4.8515625 C-12.3317838 4.35266846 -12.3317838 4.35266846 -1.87890625 0.87109375 C-1.25886719 0.58363281 -0.63882812 0.29617187 0 0 Z " fill="#3D9A78" transform="translate(322,196)"/>
<path d="M0 0 C0.66 0.99 1.32 1.98 2 3 C1.34 3.66 0.68 4.32 0 5 C-0.309375 5.804375 -0.61875 6.60875 -0.9375 7.4375 C-1.99543481 9.98898982 -2.85348838 11.3006783 -5 13 C-5.66 13 -6.32 13 -7 13 C-7.103125 13.639375 -7.20625 14.27875 -7.3125 14.9375 C-7.539375 15.618125 -7.76625 16.29875 -8 17 C-8.99 17.33 -9.98 17.66 -11 18 C-11.66 17.67 -12.32 17.34 -13 17 C-13 16.34 -13 15.68 -13 15 C-11.390625 13.44921875 -11.390625 13.44921875 -9.25 11.6875 C-5.18971073 8.23086435 -1.72135972 5.16407916 0 0 Z " fill="#4AA583" transform="translate(300,239)"/>
<path d="M0 0 C1.13089582 3.39268745 0.86432909 4.22256151 -0.25 7.5 C-0.50265625 8.2734375 -0.7553125 9.046875 -1.015625 9.84375 C-2.05868438 12.12854673 -3.2177852 13.26924022 -5 15 C-6.00484883 17.33124929 -7.00522247 19.66443537 -8 22 C-8.66 22.33 -9.32 22.66 -10 23 C-9.38153621 18.08128014 -7.24673652 14.15278646 -5 9.8125 C-4.63132812 9.08869141 -4.26265625 8.36488281 -3.8828125 7.61914062 C-2.92672882 5.74361151 -1.96382391 3.87156324 -1 2 C-0.67 1.34 -0.34 0.68 0 0 Z " fill="#429C7C" transform="translate(61,95)"/>
<path d="M0 0 C4.95 1.98 4.95 1.98 10 4 C10 3.34 10 2.68 10 2 C11.9375 2.6875 11.9375 2.6875 14 4 C14.75 6.625 14.75 6.625 15 9 C9.37706588 7.71141093 4.52499377 5.66700794 0 2 C0 1.34 0 0.68 0 0 Z " fill="#359A77" transform="translate(281,175)"/>
<path d="M0 0 C-1.875 4.75 -1.875 4.75 -3 7 C-3.66 7 -4.32 7 -5 7 C-5.25523437 7.59296875 -5.51046875 8.1859375 -5.7734375 8.796875 C-7.11816498 11.21224538 -8.49214367 12.51211706 -10.625 14.25 C-11.25664062 14.77078125 -11.88828125 15.2915625 -12.5390625 15.828125 C-13.02117187 16.21484375 -13.50328125 16.6015625 -14 17 C-14 15.68 -14 14.36 -14 13 C-10.78571429 10 -10.78571429 10 -8 10 C-7.67 8.68 -7.34 7.36 -7 6 C-6.34 6 -5.68 6 -5 6 C-5 5.01 -5 4.02 -5 3 C-2.55555556 0 -2.55555556 0 0 0 Z " fill="#56A485" transform="translate(263,198)"/>
<path d="M0 0 C0.33 0.66 0.66 1.32 1 2 C0.34 2 -0.32 2 -1 2 C-1.33 2.99 -1.66 3.98 -2 5 C-2.66 4.67 -3.32 4.34 -4 4 C-4.33 5.32 -4.66 6.64 -5 8 C-5.99 8 -6.98 8 -8 8 C-8 8.66 -8 9.32 -8 10 C-9.8125 11.6875 -9.8125 11.6875 -12 13 C-12.99 12.67 -13.98 12.34 -15 12 C-10.58990583 7.14889642 -5.41995647 3.651893 0 0 Z " fill="#52A286" transform="translate(253,232)"/>
<path d="M0 0 C2.97 0.495 2.97 0.495 6 1 C1.91266859 4.44868587 -2.43805907 7.23793154 -7 10 C-7 9.34 -7 8.68 -7 8 C-7.99 7.67 -8.98 7.34 -10 7 C-9.01 6.01 -8.02 5.02 -7 4 C-6.67 4.66 -6.34 5.32 -6 6 C-5.01 6 -4.02 6 -3 6 C-3 5.34 -3 4.68 -3 4 C-2.01 4 -1.02 4 0 4 C0 2.68 0 1.36 0 0 Z " fill="#379874" transform="translate(234,349)"/>
<path d="M0 0 C0 0.99 0 1.98 0 3 C-0.639375 3.28875 -1.27875 3.5775 -1.9375 3.875 C-4.15206079 4.82823451 -4.15206079 4.82823451 -5 7 C-4.34 7.33 -3.68 7.66 -3 8 C-6 8 -6 8 -9 7 C-9.28875 7.639375 -9.5775 8.27875 -9.875 8.9375 C-11 11 -11 11 -13 12 C-13 11.01 -13 10.02 -13 9 C-13.66 8.67 -14.32 8.34 -15 8 C-13.2365625 7.13375 -13.2365625 7.13375 -11.4375 6.25 C-7.53711732 4.30328494 -3.76489146 2.19618668 0 0 Z " fill="#369A76" transform="translate(265,271)"/>
<path d="M0 0 C0.66 0.99 1.32 1.98 2 3 C1.56446161 4.6416447 1.11359098 6.28142038 0.5703125 7.890625 C-0.31581879 11.16809689 -0.39809302 14.4824111 -0.55859375 17.86328125 C-1 20 -1 20 -4 22 C-3.5697663 14.3299717 -2.25768639 7.34103058 0 0 Z " fill="#4A9F81" transform="translate(48,124)"/>
<path d="M0 0 C0.5775 0.226875 1.155 0.45375 1.75 0.6875 C0.75 3.6875 0.75 3.6875 -1.9375 5.375 C-5.33981286 6.72308623 -7.63327271 6.94583766 -11.25 6.6875 C-9.58784732 5.34854368 -7.92036393 4.01619858 -6.25 2.6875 C-5.569375 2.089375 -4.88875 1.49125 -4.1875 0.875 C-2.25 -0.3125 -2.25 -0.3125 0 0 Z " fill="#2B9871" transform="translate(270.25,350.3125)"/>
<path d="M0 0 C3.94914145 0.56416306 6.86771202 1.47676802 10 4 C10.8125 7.1875 10.8125 7.1875 11 10 C8 10 8 10 6.2109375 8.3203125 C5.30214844 7.23363281 5.30214844 7.23363281 4.375 6.125 C3.76398438 5.40570313 3.15296875 4.68640625 2.5234375 3.9453125 C1 2 1 2 0 0 Z " fill="#419C7C" transform="translate(332,119)"/>
<path d="M0 0 C0.66 0 1.32 0 2 0 C6 6.75 6 6.75 6 9 C6.66 9 7.32 9 8 9 C7.41321669 12.52069985 6.64350079 14.71299843 5 18 C5 14.7 5 11.4 5 8 C4.34 8 3.68 8 3 8 C3 7.34 3 6.68 3 6 C2.01 5.67 1.02 5.34 0 5 C0 3.35 0 1.7 0 0 Z " fill="#2A8C69" transform="translate(261,175)"/>
<path d="M0 0 C0.33 0.66 0.66 1.32 1 2 C3.12576782 2.46651207 3.12576782 2.46651207 5.5625 2.625 C6.38878906 2.69976562 7.21507812 2.77453125 8.06640625 2.8515625 C8.70449219 2.90054687 9.34257812 2.94953125 10 3 C9.67 3.66 9.34 4.32 9 5 C6.93690624 4.88521587 4.87451646 4.75773802 2.8125 4.625 C1.66394531 4.55539062 0.51539063 4.48578125 -0.66796875 4.4140625 C-3.79959117 4.02490426 -6.15285809 3.3190149 -9 2 C-5.67465243 0.89155081 -3.37817425 1.15545644 0 2 C0 1.34 0 0.68 0 0 Z " fill="#3F9B79" transform="translate(141,451)"/>
<path d="M0 0 C0.33 0 0.66 0 1 0 C1.06058594 0.96679688 1.12117187 1.93359375 1.18359375 2.9296875 C1.65815155 10.30358562 2.1876074 17.65389666 3 25 C0.31672441 22.31672441 0.43620943 20.35484365 -0.0625 16.625 C-0.63770654 12.16582118 -0.63770654 12.16582118 -1.6171875 7.7890625 C-2.23193468 4.91606035 -1.03183346 2.67062777 0 0 Z " fill="#197E59" transform="translate(141,359)"/>
<path d="M0 0 C0.33 0 0.66 0 1 0 C1.4375 2.5625 1.4375 2.5625 1 6 C-1.08682726 8.6203019 -3.46686248 10.8158151 -6 13 C-6.99 12.67 -7.98 12.34 -9 12 C-8.67 11.34 -8.34 10.68 -8 10 C-7.34 10 -6.68 10 -6 10 C-5.34 8.35 -4.68 6.7 -4 5 C-3.34 5 -2.68 5 -2 5 C-1.34 3.35 -0.68 1.7 0 0 Z " fill="#2F9572" transform="translate(274,209)"/>
<path d="M0 0 C-0.33 0.66 -0.66 1.32 -1 2 C-6.89259861 3.65155878 -12.90281525 4.27098599 -19 4 C-18.01 3.67 -17.02 3.34 -16 3 C-16 2.34 -16 1.68 -16 1 C-10.65097076 0.40801257 -5.39115154 -0.14187241 0 0 Z " fill="#3B9776" transform="translate(368,452)"/>
<path d="M0 0 C0.33 0 0.66 0 1 0 C1.10152799 6.7685324 1.03026944 13.30324864 0 20 C-2.84510429 15.73234357 -2.39341539 12.00848052 -2 7 C-1.49926228 4.55674527 -0.82180259 2.36268245 0 0 Z " fill="#389273" transform="translate(457,337)"/>
<path d="M0 0 C-2.57784846 2.64752004 -4.91648098 4.94432065 -8 7 C-8.99 6.67 -9.98 6.34 -11 6 C-10.01 5.67 -9.02 5.34 -8 5 C-8.33 3.68 -8.66 2.36 -9 1 C-3.375 -1.125 -3.375 -1.125 0 0 Z " fill="#2E9571" transform="translate(195,252)"/>
<path d="M0 0 C0.33 0.66 0.66 1.32 1 2 C0.34 2 -0.32 2 -1 2 C-1.433125 3.3921875 -1.433125 3.3921875 -1.875 4.8125 C-3 8 -3 8 -5 11 C-5.66 11 -6.32 11 -7 11 C-7.33 11.66 -7.66 12.32 -8 13 C-8 12.34 -8 11.68 -8 11 C-8.66 10.67 -9.32 10.34 -10 10 C-9.34 10 -8.68 10 -8 10 C-7.896875 9.360625 -7.79375 8.72125 -7.6875 8.0625 C-7.460625 7.381875 -7.23375 6.70125 -7 6 C-6.01 5.67 -5.02 5.34 -4 5 C-4 4.34 -4 3.68 -4 3 C-3.34 3 -2.68 3 -2 3 C-2 2.34 -2 1.68 -2 1 C-1.34 0.67 -0.68 0.34 0 0 Z " fill="#2F9973" transform="translate(262,224)"/>
<path d="M0 0 C0.33 0.99 0.66 1.98 1 3 C-1.1875 6.1875 -1.1875 6.1875 -4 9 C-5.32 9 -6.64 9 -8 9 C-8 9.66 -8 10.32 -8 11 C-8.66 11 -9.32 11 -10 11 C-8.55218207 7.55571735 -6.72305391 5.63869038 -3.875 3.25 C-3.15054688 2.63640625 -2.42609375 2.0228125 -1.6796875 1.390625 C-0.84824219 0.70226562 -0.84824219 0.70226562 0 0 Z " fill="#4EA485" transform="translate(221,298)"/>
<path d="M0 0 C0.66 0 1.32 0 2 0 C1.55050746 4.83204486 0.56116228 7.63133297 -3 11 C-6.25 11.8125 -6.25 11.8125 -9 12 C-8.236875 11.2575 -7.47375 10.515 -6.6875 9.75 C-3.59109796 6.58158861 -1.40320511 4.20961534 0 0 Z " fill="#44A080" transform="translate(306,282)"/>
<path d="M0 0 C0.33 0.99 0.66 1.98 1 3 C-0.57347176 4.035969 -2.15921546 5.05331732 -3.75 6.0625 C-4.63171875 6.63097656 -5.5134375 7.19945312 -6.421875 7.78515625 C-9 9 -9 9 -11.328125 8.68359375 C-12.15570313 8.34521484 -12.15570313 8.34521484 -13 8 C-8.78542278 4.88121286 -4.77826683 2.21431878 0 0 Z " fill="#3D9B76" transform="translate(249,280)"/>
<path d="M0 0 C3.63094642 2.64960955 5.89851796 5.01824456 8 9 C4.78481903 9 3.58975241 8.8378888 1 7 C-0.25 3.875 -0.25 3.875 -1 1 C-0.67 0.67 -0.34 0.34 0 0 Z " fill="#489F80" transform="translate(423,75)"/>
<path d="M0 0 C5.56890517 0.47986031 10.67067568 1.29915181 16 3 C15.67 3.66 15.34 4.32 15 5 C12.69 5 10.38 5 8 5 C8 4.34 8 3.68 8 3 C5.36 2.67 2.72 2.34 0 2 C0 1.34 0 0.68 0 0 Z " fill="#3B9976" transform="translate(363,46)"/>
<path d="M0 0 C0.33 1.32 0.66 2.64 1 4 C0.01 4.495 0.01 4.495 -1 5 C-1.65555119 7.52733235 -1.65555119 7.52733235 -2 10 C-4.64 10.66 -7.28 11.32 -10 12 C-9.61328125 11.55269531 -9.2265625 11.10539063 -8.828125 10.64453125 C-5.81609925 7.1478974 -2.85678969 3.62592537 0 0 Z " fill="#48A081" transform="translate(341,180)"/>
<path d="M0 0 C0.99 0.33 1.98 0.66 3 1 C2.360625 1.763125 1.72125 2.52625 1.0625 3.3125 C-1.14232781 5.88246713 -1.14232781 5.88246713 -2 9 C-3.62332967 10.38576923 -5.28724465 11.72641268 -7 13 C-5.58832253 7.73829306 -3.25149768 4.27828642 0 0 Z " fill="#479C7E" transform="translate(229,378)"/>
<path d="M0 0 C3.8063457 0.67170806 7.35206816 1.72746564 11 3 C11.33 4.65 11.66 6.3 12 8 C10.18387512 7.04855402 8.37218919 6.08863067 6.5625 5.125 C5.55316406 4.59132813 4.54382813 4.05765625 3.50390625 3.5078125 C1 2 1 2 0 0 Z " fill="#389975" transform="translate(320,111)"/>
<path d="M0 0 C0.66 0.33 1.32 0.66 2 1 C1 4 1 4 -1.21484375 5.421875 C-2.56255859 6.07929688 -2.56255859 6.07929688 -3.9375 6.75 C-4.83339844 7.19859375 -5.72929687 7.6471875 -6.65234375 8.109375 C-7.42707031 8.40328125 -8.20179688 8.6971875 -9 9 C-9.66 8.67 -10.32 8.34 -11 8 C-9.72992786 7.0406581 -8.45891081 6.08256706 -7.1875 5.125 C-6.47980469 4.59132813 -5.77210938 4.05765625 -5.04296875 3.5078125 C-3.39543703 2.29185219 -1.70375789 1.13583859 0 0 Z " fill="#42997A" transform="translate(234,289)"/>
<path d="M0 0 C0.33 0 0.66 0 1 0 C1.10864945 2.06132142 1.18588321 4.12431321 1.25 6.1875 C1.29640625 7.33605469 1.3428125 8.48460937 1.390625 9.66796875 C0.92924572 13.60353399 -0.29971488 15.17745787 -3 18 C-3.66 17.67 -4.32 17.34 -5 17 C-4.72285156 16.35933594 -4.44570313 15.71867188 -4.16015625 15.05859375 C-2.03428818 9.98223263 -0.47725914 5.48848012 0 0 Z " fill="#5CAD8F" transform="translate(348,159)"/>
<path d="M0 0 C-0.625 1.875 -0.625 1.875 -2 4 C-5.03002866 5.38327396 -7.05717747 6.14886672 -10.375 5.625 C-10.91125 5.41875 -11.4475 5.2125 -12 5 C-4.74193548 0 -4.74193548 0 0 0 Z " fill="#3D9A7A" transform="translate(296,126)"/>
<path d="M0 0 C1.67542976 0.28604898 3.34385343 0.61781233 5 1 C4.34 2.32 3.68 3.64 3 5 C2.34 5 1.68 5 1 5 C0.01 7.97 -0.98 10.94 -2 14 C-2.33 14 -2.66 14 -3 14 C-2.67 11.36 -2.34 8.72 -2 6 C-1.34 6 -0.68 6 0 6 C0.33 4.68 0.66 3.36 1 2 C0.34 1.67 -0.32 1.34 -1 1 C-0.67 0.67 -0.34 0.34 0 0 Z " fill="#409D7E" transform="translate(264,124)"/>
<path d="M0 0 C0 3 0 3 -1 5 C-2.64333504 6.03789581 -4.31243867 7.03567924 -6 8 C-6.99 8.66 -7.98 9.32 -9 10 C-8.67 8.68 -8.34 7.36 -8 6 C-7.34 6 -6.68 6 -6 6 C-6 5.01 -6 4.02 -6 3 C-4.02 2.01 -2.04 1.02 0 0 Z " fill="#329974" transform="translate(246,325)"/>
<path d="M0 0 C0.33 0 0.66 0 1 0 C1 1.65 1 3.3 1 5 C2.32 4.67 3.64 4.34 5 4 C3.95125002 6.62187494 3.35068687 7.79371361 0.875 9.25 C0.25625 9.4975 -0.3625 9.745 -1 10 C-2.23076923 4.58461538 -2.23076923 4.58461538 -1.0625 1.625 C-0.5365625 0.820625 -0.5365625 0.820625 0 0 Z " fill="#329F78" transform="translate(170,302)"/>
<path d="M0 0 C1.32 0.66 2.64 1.32 4 2 C3.8125 3.875 3.8125 3.875 3 6 C0.4375 7.25 0.4375 7.25 -2 8 C-1.125 1.125 -1.125 1.125 0 0 Z " fill="#2D9A71" transform="translate(258,250)"/>
<path d="M0 0 C3.17218843 3.62535821 4.42902597 7.51150278 6 12 C5.01 12 4.02 12 3 12 C2.71125 11.38125 2.4225 10.7625 2.125 10.125 C1.06279958 7.86674235 1.06279958 7.86674235 -1 6 C-0.625 2.875 -0.625 2.875 0 0 Z " fill="#3C9B7C" transform="translate(442,100)"/>
<path d="M0 0 C0.33 0.99 0.66 1.98 1 3 C-0.40445835 5.2636564 -2.1967913 7.0208685 -4 9 C-5.32 8.67 -6.64 8.34 -8 8 C-5.36 5.36 -2.72 2.72 0 0 Z " fill="#48A180" transform="translate(215,347)"/>
<path d="M0 0 C0.33 0 0.66 0 1 0 C1.19818283 6.70518586 1.30844801 12.65176798 -1 19 C-1.66 19 -2.32 19 -3 19 C-2.125 12.25 -2.125 12.25 -1 10 C-0.77377919 8.29636178 -0.59111527 6.58671299 -0.4375 4.875 C-0.31181641 3.50988281 -0.31181641 3.50988281 -0.18359375 2.1171875 C-0.12300781 1.41851562 -0.06242187 0.71984375 0 0 Z " fill="#5EAD91" transform="translate(333,149)"/>
<path d="M0 0 C2.95064148 -0.2208564 5.68368231 -0.28060989 8.625 -0.1875 C9.42679687 -0.17396484 10.22859375 -0.16042969 11.0546875 -0.14648438 C13.03674378 -0.11109051 15.01845551 -0.05728234 17 0 C17 0.33 17 0.66 17 1 C7.595 1.99 7.595 1.99 -2 3 C-1.34 2.01 -0.68 1.02 0 0 Z " fill="#4C9D80" transform="translate(292,108)"/>
<path d="M0 0 C1.32 0 2.64 0 4 0 C4.28571429 7.42857143 4.28571429 7.42857143 2 11 C0 3.375 0 3.375 0 0 Z " fill="#1D8B64" transform="translate(451,362)"/>
<path d="M0 0 C0.33 0.99 0.66 1.98 1 3 C-6.28571429 7.42857143 -6.28571429 7.42857143 -11 8 C-8.80861021 5.64270057 -6.56068027 3.97942902 -3.8125 2.3125 C-3.09707031 1.87550781 -2.38164062 1.43851562 -1.64453125 0.98828125 C-1.10183594 0.66214844 -0.55914062 0.33601562 0 0 Z " fill="#459D7D" transform="translate(219,255)"/>
<path d="M0 0 C2 3 2 3 3 6 C2.37943989 7.68437744 1.70710678 9.35008418 1 11 C0.63128912 12.65919896 0.28718326 14.3247643 0 16 C-0.33 16 -0.66 16 -1 16 C-1.02725341 14.2709226 -1.04650987 12.54171824 -1.0625 10.8125 C-1.07410156 9.84957031 -1.08570313 8.88664063 -1.09765625 7.89453125 C-1.00486622 5.14423487 -0.62111685 2.67520409 0 0 Z " fill="#389A77" transform="translate(274,144)"/>
<path d="M0 0 C5.49418605 -0.36627907 5.49418605 -0.36627907 7.8125 1.3125 C9 3 9 3 10 6 C6.00499382 4.6302836 3.19990508 2.74277578 0 0 Z " fill="#409A7A" transform="translate(92,436)"/>
<path d="M0 0 C0.66 0 1.32 0 2 0 C2.33 3.3 2.66 6.6 3 10 C1.68 10.33 0.36 10.66 -1 11 C-1 11.66 -1 12.32 -1 13 C-2.32 13.33 -3.64 13.66 -5 14 C-4.67 13.34 -4.34 12.68 -4 12 C-3.34 12 -2.68 12 -2 12 C-2 11.34 -2 10.68 -2 10 C-1.34 10 -0.68 10 0 10 C0 6.7 0 3.4 0 0 Z " fill="#6DB49E" transform="translate(278,333)"/>
<path d="M0 0 C2.475 0.99 2.475 0.99 5 2 C3.37660195 3.70884005 1.70680947 5.37446717 0 7 C-0.66 7 -1.32 7 -2 7 C-2.125 4.625 -2.125 4.625 -2 2 C-1.34 1.34 -0.68 0.68 0 0 Z " fill="#3E9E7E" transform="translate(417,424)"/>
<path d="M0 0 C0.12375 0.61875 0.2475 1.2375 0.375 1.875 C0.87197356 4.19120832 0.87197356 4.19120832 3 6 C1.68 7.65 0.36 9.3 -1 11 C-2.1875 7.75 -2.1875 7.75 -3 4 C-1.625 1.5625 -1.625 1.5625 0 0 Z " fill="#299C73" transform="translate(435,402)"/>
<path d="M0 0 C1.98 0.66 3.96 1.32 6 2 C6 2.99 6 3.98 6 5 C5.34 5 4.68 5 4 5 C3.67 5.66 3.34 6.32 3 7 C3 6.34 3 5.68 3 5 C1.68 4.34 0.36 3.68 -1 3 C-0.67 2.01 -0.34 1.02 0 0 Z " fill="#1C9468" transform="translate(145,390)"/>
<path d="M0 0 C0.66 0.33 1.32 0.66 2 1 C1.1875 3.4375 1.1875 3.4375 0 6 C-0.99 6.33 -1.98 6.66 -3 7 C-3.99 6.34 -4.98 5.68 -6 5 C-4.02 3.35 -2.04 1.7 0 0 Z " fill="#42A37F" transform="translate(293,296)"/>
<path d="M0 0 C2 0 4 0 6 0 C4.60667426 3.36720387 3.0210714 4.9859524 0 7 C-0.38133299 5.0085944 -0.71325582 3.00720923 -1 1 C-0.67 0.67 -0.34 0.34 0 0 Z " fill="#239169" transform="translate(201,289)"/>
<path d="M0 0 C0.66 0 1.32 0 2 0 C0.69063102 2.92090003 -0.75619462 4.75619462 -3 7 C-3.33 7.99 -3.66 8.98 -4 10 C-4.99 10 -5.98 10 -7 10 C-6.67 8.68 -6.34 7.36 -6 6 C-5.34 6 -4.68 6 -4 6 C-4 5.34 -4 4.68 -4 4 C-3.34 4 -2.68 4 -2 4 C-2 3.34 -2 2.68 -2 2 C-1.34 2 -0.68 2 0 2 C0 1.34 0 0.68 0 0 Z " fill="#3F9579" transform="translate(78,74)"/>
<path d="M0 0 C2.33944736 0.28730055 4.6739143 0.61936779 7 1 C5.37633534 4.24732932 2.24612161 4.70155136 -1 6 C-1.042721 4.33388095 -1.04063832 2.66617115 -1 1 C-0.67 0.67 -0.34 0.34 0 0 Z " fill="#429F7D" transform="translate(267,290)"/>
<path d="M0 0 C0.99 0 1.98 0 3 0 C1.87548273 2.9719385 0.77706209 5.33440687 -1 8 C-1.66 6.68 -2.32 5.36 -3 4 C-1.6875 2 -1.6875 2 0 0 Z " fill="#359976" transform="translate(191,347)"/>
<path d="M0 0 C1.33332095 2.6666419 0.67102033 4.16680303 0 7 C-2.475 6.01 -2.475 6.01 -5 5 C-4 2 -4 2 -1.9375 0.8125 C-1.298125 0.544375 -0.65875 0.27625 0 0 Z " fill="#0D8A5E" transform="translate(191,306)"/>
<path d="M0 0 C0.33 1.32 0.66 2.64 1 4 C-1.31 5.98 -3.62 7.96 -6 10 C-6 8.68 -6 7.36 -6 6 C-2.78571429 3 -2.78571429 3 0 3 C0 2.01 0 1.02 0 0 Z " fill="#399472" transform="translate(255,205)"/>
<path d="M0 0 C0.33 0.99 0.66 1.98 1 3 C1.99 3 2.98 3 4 3 C3.34 4.98 2.68 6.96 2 9 C0.22293791 6.33440687 -0.87548273 3.9719385 -2 1 C-1.34 0.67 -0.68 0.34 0 0 Z " fill="#2E9972" transform="translate(345,131)"/>
<path d="M0 0 C2.25 0.25 2.25 0.25 4 1 C4 1.66 4 2.32 4 3 C0.535 4.485 0.535 4.485 -3 6 C-3.33 5.34 -3.66 4.68 -4 4 C-2.25 1.9375 -2.25 1.9375 0 0 Z " fill="#409D7C" transform="translate(251,300)"/>
<path d="M0 0 C0.99 0.33 1.98 0.66 3 1 C1.7260411 3.03833424 0.38938077 5.03852126 -1 7 C-1.66 7 -2.32 7 -3 7 C-3.1875 4.625 -3.1875 4.625 -3 2 C-2.01 1.34 -1.02 0.68 0 0 Z " fill="#339773" transform="translate(165,278)"/>
<path d="M0 0 C-2.35277269 2.72426311 -4.62496331 3.8141763 -8 5 C-7.625 3.0625 -7.625 3.0625 -7 1 C-4.53721199 -0.231394 -2.7204945 -0.07159196 0 0 Z " fill="#489E7F" transform="translate(323,178)"/>
<path d="M0 0 C1.2065625 0.0309375 1.2065625 0.0309375 2.4375 0.0625 C-0.3125 4.9375 -0.3125 4.9375 -2.5625 6.0625 C-2.94468767 4.40635343 -3.27645102 2.73792976 -3.5625 1.0625 C-2.5625 0.0625 -2.5625 0.0625 0 0 Z " fill="#47A282" transform="translate(429.5625,414.9375)"/>
<path d="M0 0 C0.99 0 1.98 0 3 0 C4.17571451 3.67410785 4.07366746 7.16929183 4 11 C2.03698408 7.49461443 1.04097612 3.86648272 0 0 Z " fill="#449679" transform="translate(48,376)"/>
<path d="M0 0 C0.33 0.66 0.66 1.32 1 2 C1.99 2 2.98 2 4 2 C4 2.66 4 3.32 4 4 C2.02 4.99 2.02 4.99 0 6 C0 5.34 0 4.68 0 4 C-0.99 3.67 -1.98 3.34 -3 3 C-2.01 2.01 -1.02 1.02 0 0 Z " fill="#269B71" transform="translate(227,353)"/>
<path d="M0 0 C1.65 0 3.3 0 5 0 C2.11912454 2.40072955 -0.56404834 4.47291037 -4 6 C-4 5.01 -4 4.02 -4 3 C-2.68 2.67 -1.36 2.34 0 2 C0 1.34 0 0.68 0 0 Z " fill="#54A887" transform="translate(256,337)"/>
<path d="M0 0 C-2.52956528 3.0916909 -5.22454612 3.90931332 -9 5 C-9 4.01 -9 3.02 -9 2 C-5.86501708 0.14223235 -3.62528568 -0.20140476 0 0 Z " fill="#39A07F" transform="translate(242,309)"/>
<path d="M0 0 C0.66 0.33 1.32 0.66 2 1 C1.34 2.32 0.68 3.64 0 5 C-1.98 5 -3.96 5 -6 5 C-4.06745228 2.9754262 -2.36841312 1.57894208 0 0 Z " fill="#4AA686" transform="translate(279,306)"/>
<path d="M0 0 C0.625 1.875 0.625 1.875 1 4 C0.34 4.66 -0.32 5.32 -1 6 C-1.99 6 -2.98 6 -4 6 C-4 4.68 -4 3.36 -4 2 C-2.68 1.34 -1.36 0.68 0 0 Z " fill="#11895E" transform="translate(198,271)"/>
<path d="M0 0 C0.66 0.33 1.32 0.66 2 1 C2 1.99 2 2.98 2 4 C0.68 3.67 -0.64 3.34 -2 3 C-2 3.66 -2 4.32 -2 5 C-3.65 4.67 -5.3 4.34 -7 4 C-4.66603411 2.44402274 -2.57343171 1.07918104 0 0 Z " fill="#39A17B" transform="translate(114,52)"/>
<path d="M0 0 C0.66 0.99 1.32 1.98 2 3 C2.66 2.67 3.32 2.34 4 2 C3.43628586 5.26954202 2.50037734 6.82575883 0 9 C-1.15941038 5.52176885 -0.70820884 3.54104422 0 0 Z " fill="#3C9C7C" transform="translate(159,382)"/>
<path d="M0 0 C0.66 0.33 1.32 0.66 2 1 C1.6875 2.9375 1.6875 2.9375 1 5 C0.01 5.33 -0.98 5.66 -2 6 C-2 5.34 -2 4.68 -2 4 C-2.99 3.67 -3.98 3.34 -5 3 C-2.625 1.4375 -2.625 1.4375 0 0 Z " fill="#4BAE8C" transform="translate(252,321)"/>
<path d="M0 0 C0.66 1.32 1.32 2.64 2 4 C1.34 4.66 0.68 5.32 0 6 C-2.125 5.625 -2.125 5.625 -4 5 C-2.68 3.35 -1.36 1.7 0 0 Z " fill="#3F9D7B" transform="translate(179,289)"/>
<path d="M0 0 C0 4.38968456 -2.12805101 5.76905739 -5 9 C-5.33 8.01 -5.66 7.02 -6 6 C-5.34 6 -4.68 6 -4 6 C-3.71125 5.195625 -3.4225 4.39125 -3.125 3.5625 C-2 1 -2 1 0 0 Z " fill="#399271" transform="translate(329,169)"/>
<path d="M0 0 C0.33 0.66 0.66 1.32 1 2 C1.66 2 2.32 2 3 2 C3.99 4.31 4.98 6.62 6 9 C5.01 9.33 4.02 9.66 3 10 C1.87119943 6.68885166 0.78697325 3.41021743 0 0 Z " fill="#3F9777" transform="translate(436,91)"/>
<path d="M0 0 C0.66 0.33 1.32 0.66 2 1 C1.67 3.64 1.34 6.28 1 9 C-0.32 7.68 -1.64 6.36 -3 5 C-2.01 3.35 -1.02 1.7 0 0 Z " fill="#369B76" transform="translate(67,86)"/>
<path d="M0 0 C-1.32 1.32 -2.64 2.64 -4 4 C-4 3.34 -4 2.68 -4 2 C-5.32 2 -6.64 2 -8 2 C-8 1.34 -8 0.68 -8 0 C-4.71023192 -1.09658936 -3.28696233 -0.79953138 0 0 Z " fill="#0C8C5D" transform="translate(230,298)"/>
<path d="M0 0 C2.64 0.99 5.28 1.98 8 3 C7.01 3.66 6.02 4.32 5 5 C5 4.34 5 3.68 5 3 C3.02 3.33 1.04 3.66 -1 4 C-0.67 2.68 -0.34 1.36 0 0 Z " fill="#76B29D" transform="translate(282,195)"/>
<path d="M0 0 C2.31 0.33 4.62 0.66 7 1 C6.67 1.66 6.34 2.32 6 3 C4.02 3 2.04 3 0 3 C0 2.01 0 1.02 0 0 Z " fill="#329470" transform="translate(144,453)"/>
<path d="M0 0 C-3.96 1.98 -3.96 1.98 -8 4 C-8 3.01 -8 2.02 -8 1 C-4.59449725 -1.06762667 -4.18836538 -1.04709135 0 0 Z " fill="#5FAB92" transform="translate(252,344)"/>
<path d="M0 0 C-0.8125 1.9375 -0.8125 1.9375 -2 4 C-2.99 4.33 -3.98 4.66 -5 5 C-5.33 3.68 -5.66 2.36 -6 1 C-3.92446352 0.4465236 -2.15634036 0 0 0 Z " fill="#3C9D7B" transform="translate(216,325)"/>
<path d="M0 0 C0.33 0.99 0.66 1.98 1 3 C-0.97746603 3.73080266 -2.98072489 4.39421747 -5 5 C-5.66 4.67 -6.32 4.34 -7 4 C-4.69 2.68 -2.38 1.36 0 0 Z " fill="#5CAC8D" transform="translate(249,280)"/>
</svg>
